HIERARCHY
ROOT joint_Root
{
	OFFSET 0.0 0.0 0.0
	CHANNELS 6 Xposition Yposition Zposition Zrotation Xrotation Yrotation 
	JOINT Hips
	{
		OFFSET -0.726466 93.3139 -2.00062
		CHANNELS 6 Xposition Yposition Zposition Zrotation Xrotation Yrotation 
		JOINT Spine
		{
			OFFSET 15.7357 0.0 0.0
			CHANNELS 6 Xposition Yposition Zposition Zrotation Xrotation Yrotation 
			JOINT Chest
			{
				OFFSET 8.98455 -0.406207 0.0
				CHANNELS 6 Xposition Yposition Zposition Zrotation Xrotation Yrotation 
				JOINT Neck
				{
					OFFSET 16.3773 0.0 0.0
					CHANNELS 6 Xposition Yposition Zposition Zrotation Xrotation Yrotation 
					JOINT Head
					{
						OFFSET 6.45672 0.0 0.0
						CHANNELS 6 Xposition Yposition Zposition Zrotation Xrotation Yrotation 
						End Site
						{
							OFFSET 0.0 0.0 0.0
						}
					}
				}
				JOINT Shoulder_L
				{
					OFFSET 12.9942 -0.242716 4.98039
					CHANNELS 6 Xposition Yposition Zposition Zrotation Xrotation Yrotation 
					JOINT UpperArm_L
					{
						OFFSET 5.34809 0.0 0.0
						CHANNELS 6 Xposition Yposition Zposition Zrotation Xrotation Yrotation 
						JOINT LowerArm_L
						{
							OFFSET 24.3286 1.87007e-05 0.0
							CHANNELS 6 Xposition Yposition Zposition Zrotation Xrotation Yrotation 
							JOINT Hand_L
							{
								OFFSET 22.2916 0.0 0.0
								CHANNELS 6 Xposition Yposition Zposition Zrotation Xrotation Yrotation 
								End Site
								{
									OFFSET 0.0 0.0 0.0
								}
							}
						}
					}
				}
				JOINT Shoulder_R
				{
					OFFSET 12.9945 -0.242716 -4.98039
					CHANNELS 6 Xposition Yposition Zposition Zrotation Xrotation Yrotation 
					JOINT UpperArm_R
					{
						OFFSET -5.34813 0.0 0.0
						CHANNELS 6 Xposition Yposition Zposition Zrotation Xrotation Yrotation 
						JOINT LowerArm_R
						{
							OFFSET -24.3289 0.000322201 0.0
							CHANNELS 6 Xposition Yposition Zposition Zrotation Xrotation Yrotation 
							JOINT Hand_R
							{
								OFFSET -22.2915 -0.000108084 0.0
								CHANNELS 6 Xposition Yposition Zposition Zrotation Xrotation Yrotation 
								End Site
								{
									OFFSET 0.0 0.0 0.0
								}
							}
						}
					}
				}
			}
		}
		JOINT UpperLeg_L
		{
			OFFSET -2.19248 -6.46944 0.0
			CHANNELS 6 Xposition Yposition Zposition Zrotation Xrotation Yrotation 
			JOINT LowerLeg_L
			{
				OFFSET 39.0811 0.0 -1.23785e-05
				CHANNELS 6 Xposition Yposition Zposition Zrotation Xrotation Yrotation 
				JOINT Foot_L
				{
					OFFSET 40.9854 0.0 -1.26872e-05
					CHANNELS 6 Xposition Yposition Zposition Zrotation Xrotation Yrotation 
					JOINT Toes_L
					{
						OFFSET 11.7543 0.0 0.0
						CHANNELS 6 Xposition Yposition Zposition Zrotation Xrotation Yrotation 
						End Site
						{
							OFFSET 0.0 0.0 0.0
						}
					}
				}
			}
		}
		JOINT UpperLeg_R
		{
			OFFSET -2.19251 6.46944 0.0
			CHANNELS 6 Xposition Yposition Zposition Zrotation Xrotation Yrotation 
			JOINT LowerLeg_R
			{
				OFFSET -39.0811 -0.00228153 -0.0401928
				CHANNELS 6 Xposition Yposition Zposition Zrotation Xrotation Yrotation 
				JOINT Foot_R
				{
					OFFSET -40.9854 0.0 0.0
					CHANNELS 6 Xposition Yposition Zposition Zrotation Xrotation Yrotation 
					JOINT Toes_R
					{
						OFFSET -11.7543 0.0 0.0
						CHANNELS 6 Xposition Yposition Zposition Zrotation Xrotation Yrotation 
						End Site
						{
							OFFSET 0.0 0.0 0.0
						}
					}
				}
			}
		}
	}
}
MOTION
Frames:	9
Frame Time:	0.0333333
0.000000 0.000000 0.000000 0.000000 0.000000 -0.000000 -0.503532 91.748700 1.266210 88.325400 -1.625980 6.303500 15.735700 0.000005 -0.000001 84.444500 83.885700 -84.147400 8.984550 -0.406207 -0.000000 4.409130 -1.190570 0.639325 16.377300 -0.000001 -0.000001 3.689300 -1.441400 0.898291 6.456720 -0.000001 -0.000000 2.077040 0.094406 -1.746110 12.994200 -0.242716 4.980390 -90.189800 0.601170 -72.478600 5.348090 -0.000007 -0.000001 -60.790300 46.058700 -15.333000 24.328600 0.000019 0.000005 -0.806198 -1.281350 -32.177500 22.291600 -0.000001 0.000005 6.980560 5.660830 -16.154100 12.994500 -0.242716 -4.980390 88.022100 6.158100 -72.154500 -5.348130 -0.000001 -0.000004 -63.434000 36.022700 -15.834900 -24.328900 0.000322 -0.000009 -4.543990 -9.567060 -25.550900 -22.291500 -0.000108 -0.000004 4.880530 5.577410 -10.074900 -2.192480 -6.469440 -0.000000 -168.904000 -19.166700 -0.829624 39.081100 -0.000007 -0.000012 -0.204227 0.449948 24.413200 40.985400 -0.000006 -0.000013 -6.231600 -1.052570 -64.790700 11.754300 -0.000000 0.000003 -0.000181 -0.001705 -16.642000 -2.192510 6.469440 -0.000001 172.184000 21.658200 -178.910000 -39.081100 -0.002282 -0.040193 0.031250 -0.067377 22.517800 -40.985400 0.000008 0.000006 -1.149150 3.659760 -64.890500 -11.754300 -0.000006 -0.000006 -0.001918 -0.027682 -17.698700
0.000000 0.000000 0.000000 0.000000 0.000000 -0.000000 -0.499964 91.745800 1.230660 88.313100 -1.638920 6.323410 15.735700 0.000005 -0.000001 84.367900 83.865600 -84.101000 8.984550 -0.406207 -0.000000 4.447160 -1.209750 0.580224 16.377300 -0.000001 -0.000001 3.607280 -1.399370 0.899008 6.456720 -0.000001 -0.000000 1.917050 0.111642 -1.835200 12.994200 -0.242716 4.980390 -90.169900 0.533688 -72.343300 5.348090 -0.000007 -0.000001 -57.870400 48.878000 -16.205300 24.328600 0.000019 0.000005 -1.089100 -1.531330 -35.430800 22.291600 -0.000001 0.000005 7.009490 5.665520 -16.738800 12.994500 -0.242716 -4.980390 88.037600 6.047110 -71.983000 -5.348130 -0.000001 -0.000004 -62.868300 34.330200 -16.394500 -24.328900 0.000322 -0.000009 -4.322620 -9.164990 -25.381800 -22.291500 -0.000108 -0.000004 6.017640 5.574570 -9.925640 -2.192480 -6.469440 -0.000000 -168.901000 -19.158000 -0.862148 39.081100 -0.000007 -0.000012 -0.203225 0.446644 24.466000 40.985400 -0.000006 -0.000013 -6.227830 -1.091050 -64.795300 11.754300 -0.000000 0.000003 -0.000164 -0.001565 -16.636900 -2.192510 6.469440 -0.000001 172.152000 21.687100 -178.897000 -39.081100 -0.002282 -0.040193 0.025646 -0.053922 22.494000 -40.985400 0.000008 0.000006 -1.283700 3.792600 -64.839200 -11.754300 -0.000006 -0.000006 -0.001968 -0.028319 -17.724600
0.000000 0.000000 0.000000 0.000000 0.000000 -0.000000 -0.497099 91.757800 1.187890 88.283200 -1.698560 6.291200 15.735700 0.000005 -0.000001 84.343700 83.845700 -84.117200 8.984550 -0.406207 -0.000000 4.485890 -1.217540 0.500387 16.377300 -0.000001 -0.000001 3.452420 -1.351380 0.959147 6.456720 -0.000001 -0.000000 1.758330 0.153267 -1.968300 12.994200 -0.242716 4.980390 -90.112600 0.350597 -72.189700 5.348090 -0.000007 -0.000001 -54.229300 51.766300 -17.230700 24.328600 0.000019 0.000005 -0.482038 -0.576767 -39.973600 22.291600 -0.000001 0.000005 6.923860 5.671180 -17.571400 12.994500 -0.242716 -4.980390 88.067200 5.880680 -71.770000 -5.348130 -0.000001 -0.000004 -61.973000 31.998300 -17.266800 -24.328900 0.000322 -0.000009 -4.065030 -8.653270 -25.278000 -22.291500 -0.000108 -0.000004 6.912570 5.569050 -9.640500 -2.192480 -6.469440 -0.000000 -168.895000 -19.126000 -0.889518 39.081100 -0.000007 -0.000012 -0.203790 0.448843 24.420000 40.985400 -0.000006 -0.000013 -6.233760 -1.149230 -64.761800 11.754300 -0.000000 0.000003 -0.000164 -0.001563 -16.636900 -2.192510 6.469440 -0.000001 172.222000 21.708300 -178.957000 -39.081100 -0.002282 -0.040193 0.028266 -0.060367 22.454900 -40.985400 0.000008 0.000006 -1.141400 3.817840 -64.794800 -11.754300 -0.000006 -0.000006 -0.001809 -0.026299 -17.642500
0.000000 0.000000 0.000000 0.000000 0.000000 -0.000000 -0.474607 91.761900 1.138840 88.285600 -1.799930 6.243540 15.735700 0.000005 -0.000001 84.418000 83.845300 -84.252500 8.984550 -0.406207 -0.000000 4.487630 -1.200020 0.377646 16.377300 -0.000001 -0.000001 3.338310 -1.336250 0.974468 6.456720 -0.000001 -0.000000 1.561480 0.151856 -2.002780 12.994200 -0.242716 4.980390 -90.015600 0.048010 -71.981700 5.348090 -0.000007 -0.000001 -50.484100 54.266100 -18.000800 24.328600 0.000019 0.000005 0.873211 0.857616 -45.474400 22.291600 -0.000001 0.000005 6.979680 5.677000 -18.689900 12.994500 -0.242716 -4.980390 88.085100 5.722500 -71.463300 -5.348130 -0.000001 -0.000004 -60.355300 29.334600 -18.541600 -24.328900 0.000322 -0.000009 -3.786060 -8.029360 -25.343700 -22.291500 -0.000108 -0.000004 7.684400 5.563820 -9.376970 -2.192480 -6.469440 -0.000000 -168.932000 -19.204600 -0.954211 39.081100 -0.000007 -0.000012 -0.202785 0.446437 24.429300 40.985400 -0.000006 -0.000013 -6.214700 -1.192780 -64.751600 11.754300 -0.000000 0.000003 -0.000142 -0.001390 -16.630500 -2.192510 6.469440 -0.000001 172.225000 21.690600 -179.044000 -39.081100 -0.002282 -0.040193 0.024652 -0.051723 22.415500 -40.985400 0.000008 0.000006 -1.294610 3.907650 -64.706600 -11.754300 -0.000006 -0.000006 -0.001856 -0.026903 -17.667000
0.000000 0.000000 0.000000 0.000000 0.000000 -0.000000 -0.441118 91.773500 1.082740 88.284000 -1.891680 6.239370 15.735700 0.000005 -0.000001 84.572100 83.840100 -84.477100 8.984550 -0.406207 -0.000000 4.500340 -1.166070 0.235494 16.377300 -0.000001 -0.000001 3.238450 -1.345400 0.970152 6.456720 -0.000001 -0.000000 1.376890 0.091947 -2.035590 12.994200 -0.242716 4.980390 -89.865600 -0.408605 -71.793500 5.348090 -0.000007 -0.000001 -46.232500 56.770300 -18.881300 24.328600 0.000019 0.000005 1.913500 1.510340 -51.716500 22.291600 -0.000001 0.000005 7.022250 5.680220 -19.679900 12.994500 -0.242716 -4.980390 88.154700 5.397160 -71.092300 -5.348130 -0.000001 -0.000004 -58.117100 26.497200 -20.271800 -24.328900 0.000322 -0.000009 -3.618920 -7.638800 -25.438300 -22.291500 -0.000108 -0.000004 8.086250 5.558800 -9.128990 -2.192480 -6.469440 -0.000000 -168.972000 -19.215200 -0.976257 39.081100 -0.000007 -0.000012 -0.201238 0.443576 24.402800 40.985400 -0.000006 -0.000013 -6.201450 -1.303320 -64.717100 11.754300 -0.000000 0.000003 -0.000167 -0.001587 -16.637700 -2.192510 6.469440 -0.000001 172.243000 21.606500 -179.084000 -39.081100 -0.002282 -0.040193 0.024703 -0.051984 22.362400 -40.985400 0.000008 0.000006 -1.256950 3.918800 -64.635200 -11.754300 -0.000006 -0.000006 -0.001937 -0.027919 -17.708400
0.000000 0.000000 0.000000 0.000000 0.000000 -0.000000 -0.402692 91.777800 1.030500 88.259300 -2.014030 6.239200 15.735700 0.000005 -0.000001 84.466000 83.835200 -84.454800 8.984550 -0.406207 -0.000000 4.506930 -1.187270 0.069125 16.377300 -0.000001 -0.000001 3.154660 -1.294540 0.912851 6.456720 -0.000001 -0.000000 1.123540 0.066222 -2.047930 12.994200 -0.242716 4.980390 -89.679300 -0.957629 -71.485400 5.348090 -0.000007 -0.000001 -41.164600 59.327400 -20.061700 24.328600 0.000019 0.000005 2.849260 1.730250 -58.741700 22.291600 -0.000001 0.000005 7.338410 5.681630 -20.411700 12.994500 -0.242716 -4.980390 88.289600 4.920000 -70.803200 -5.348130 -0.000001 -0.000004 -55.615700 22.961300 -22.369800 -24.328900 0.000322 -0.000009 -3.283220 -6.948270 -25.363200 -22.291500 -0.000108 -0.000004 7.988890 5.551010 -8.752610 -2.192480 -6.469440 -0.000000 -168.984000 -19.246100 -1.004000 39.081100 -0.000007 -0.000012 -0.201043 0.442431 24.437500 40.985400 -0.000006 -0.000013 -6.186070 -1.404270 -64.729000 11.754300 -0.000000 0.000003 -0.000173 -0.001640 -16.639700 -2.192510 6.469440 -0.000001 172.253000 21.587800 -179.123000 -39.081100 -0.002282 -0.040193 0.025425 -0.053836 22.326200 -40.985400 0.000008 0.000006 -1.256820 4.010400 -64.560400 -11.754300 -0.000006 -0.000006 -0.001897 -0.027414 -17.687800
0.000000 0.000000 0.000000 0.000000 0.000000 -0.000000 -0.338792 91.785000 1.001760 88.259000 -2.187410 6.228400 15.735700 0.000005 -0.000001 84.746100 83.843300 -84.836000 8.984550 -0.406207 -0.000000 4.495360 -1.123010 -0.135445 16.377300 -0.000001 -0.000001 3.052560 -1.275180 0.850354 6.456720 -0.000001 -0.000000 0.866908 0.035855 -2.176690 12.994200 -0.242716 4.980390 -89.491900 -1.505570 -71.347400 5.348090 -0.000007 -0.000001 -35.590400 61.806600 -21.319200 24.328600 0.000019 0.000005 4.592340 2.030410 -66.172000 22.291600 -0.000001 0.000005 8.190830 5.682120 -21.388600 12.994500 -0.242716 -4.980390 88.410600 4.469260 -70.400300 -5.348130 -0.000001 -0.000004 -52.724800 18.760800 -24.834000 -24.328900 0.000322 -0.000009 -3.145460 -6.727470 -25.124000 -22.291500 -0.000108 -0.000004 7.247560 5.537900 -8.146220 -2.192480 -6.469440 -0.000000 -169.012000 -19.416800 -0.994439 39.081100 -0.000007 -0.000012 -0.198142 0.436000 24.439900 40.985400 -0.000006 -0.000013 -6.142380 -1.430420 -64.736400 11.754300 -0.000000 0.000003 -0.000147 -0.001426 -16.631800 -2.192510 6.469440 -0.000001 172.239000 21.518600 -179.174000 -39.081100 -0.002282 -0.040193 0.025524 -0.054212 22.275000 -40.985400 0.000008 0.000006 -1.270190 4.129490 -64.475100 -11.754300 -0.000006 -0.000006 -0.001979 -0.028451 -17.730000
0.000000 0.000000 0.000000 0.000000 0.000000 -0.000000 -0.280889 91.795900 0.960623 88.257000 -2.313870 6.228200 15.735700 0.000005 -0.000001 84.795700 83.857700 -85.001400 8.984550 -0.406207 -0.000000 4.466740 -1.106480 -0.367613 16.377300 -0.000001 -0.000001 2.905540 -1.239920 0.678606 6.456720 -0.000001 -0.000000 0.671927 -0.013140 -2.157190 12.994200 -0.242716 4.980390 -89.224100 -2.285070 -71.238700 5.348090 -0.000007 -0.000001 -30.354600 64.147800 -22.558800 24.328600 0.000019 0.000005 8.549770 2.606680 -73.147900 22.291600 -0.000001 0.000005 9.872150 5.680050 -22.812100 12.994500 -0.242716 -4.980390 88.566100 3.958490 -70.069400 -5.348130 -0.000001 -0.000004 -49.787200 13.969800 -27.605800 -24.328900 0.000322 -0.000009 -2.934880 -6.512040 -24.317300 -22.291500 -0.000108 -0.000004 7.046880 5.529530 -7.775240 -2.192480 -6.469440 -0.000000 -169.034000 -19.508200 -0.974562 39.081100 -0.000007 -0.000012 -0.200978 0.442894 24.408000 40.985400 -0.000006 -0.000013 -6.103700 -1.443140 -64.720600 11.754300 -0.000000 0.000003 -0.000153 -0.001474 -16.633500 -2.192510 6.469440 -0.000001 172.225000 21.472000 -179.196000 -39.081100 -0.002282 -0.040193 0.029329 -0.063701 22.212400 -40.985400 0.000008 0.000006 -1.192740 4.209690 -64.402100 -11.754300 -0.000006 -0.000006 -0.001969 -0.028327 -17.725000
0.000000 0.000000 0.000000 0.000000 0.000000 -0.000000 -0.206097 91.801700 0.936039 88.244300 -2.417640 6.239750 15.735700 0.000005 -0.000001 84.907600 83.872800 -85.224400 8.984550 -0.406207 -0.000000 4.437760 -1.076700 -0.591337 16.377300 -0.000001 -0.000001 2.653560 -1.188100 0.563932 6.456720 -0.000001 -0.000000 0.582055 -0.046377 -2.340940 12.994200 -0.242716 4.980390 -88.889100 -3.260100 -71.171700 5.348090 -0.000007 -0.000001 -25.447200 66.606400 -24.185600 24.328600 0.000019 0.000005 13.895200 2.722960 -79.117900 22.291600 -0.000001 0.000005 12.807800 5.673650 -24.285600 12.994500 -0.242716 -4.980390 88.809400 3.243580 -69.830600 -5.348130 -0.000001 -0.000004 -47.447200 8.178750 -30.426100 -24.328900 0.000322 -0.000009 -2.584710 -6.058280 -23.148800 -22.291500 -0.000108 -0.000004 7.576970 5.514490 -7.131710 -2.192480 -6.469440 -0.000000 -169.090000 -19.512900 -0.985460 39.081100 -0.000007 -0.000012 -0.196760 0.432875 24.444100 40.985400 -0.000006 -0.000013 -6.062690 -1.547500 -64.754000 11.754300 -0.000000 0.000003 -0.000149 -0.001442 -16.632400 -2.192510 6.469440 -0.000001 172.198000 21.484200 -179.201000 -39.081100 -0.002282 -0.040193 0.032032 -0.070503 22.160300 -40.985400 0.000008 0.000006 -1.169460 4.308130 -64.326400 -11.754300 -0.000006 -0.000006 -0.002089 -0.029828 -17.786000
